<svg width="20.000000" height="20.000000" viewBox="0 0 20 20" fill="none" xmlns="http://www.w3.org/2000/svg" xmlns:xlink="http://www.w3.org/1999/xlink">
	<desc>
			Created with Pixso.
	</desc>
	<defs/>
	<path id="Vector" d="M10 0C4.49 0 0 4.48 0 10C0 15.51 4.49 20 10 20C15.51 20 20 15.51 20 10C20 4.48 15.51 0 10 0ZM14.78 7.7L9.1 13.37C8.97 13.51 8.78 13.59 8.58 13.59C8.38 13.59 8.18 13.51 8.05 13.37L5.22 10.54C4.92 10.25 4.92 9.76 5.22 9.48C5.5 9.18 5.99 9.18 6.28 9.48L8.58 11.78L13.72 6.64C14.01 6.35 14.49 6.35 14.78 6.64C15.07 6.92 15.07 7.39 14.78 7.7Z" fill="#2BBC28" fill-opacity="1.000000" fill-rule="nonzero"/>
</svg>
